# xmcd
#
# Track frame offsets: 
#        150
#        24677
#        42449
#        55552
#        74742
#        96981
#        119102
#        141856
#        161991
#        190199
#
# Disc length: 2714 seconds
#
# Revision: 0
# Processed by: cddbd v1.5.2PL0 Copyright (c) Steve Scherf et al.
# Submitted via: ExactAudioCopy v0.99pb3
#
DISCID=9b0a980a
DTITLE=Richard Earl - One More Song
DYEAR=2008
DGENRE=Blues
TTITLE0=Henpecked
TTITLE1=Comin' Back Baby
TTITLE2=I'll Be RIght Here
TTITLE3=Baby It's You
TTITLE4=Bad News
TTITLE5=Blues Over You
TTITLE6=His Old Lady And My Old Lady
TTITLE7=Too Many Lovers
TTITLE8=One More Song
TTITLE9=Riding All Night
EXTD=
EXTT0=
EXTT1=
EXTT2=
EXTT3=
EXTT4=
EXTT5=
EXTT6=
EXTT7=
EXTT8=
EXTT9=
PLAYORDER=
